<?xml version="1.0" encoding="UTF-8" standalone="no"?>
<!DOCTYPE svg PUBLIC "-//W3C//DTD SVG 1.1//EN"
 "http://www.w3.org/Graphics/SVG/1.1/DTD/svg11.dtd">
<!-- Generated by graphviz version 2.44.1 (20200629.0846)
 -->
<!-- Title: dependencies Pages: 1 -->
<svg width="504pt" height="211pt"
 viewBox="0.00 0.00 504.00 211.00" xmlns="http://www.w3.org/2000/svg" xmlns:xlink="http://www.w3.org/1999/xlink">
<g id="graph0" class="graph" transform="scale(1 1) rotate(0) translate(4 207)">
<title>dependencies</title>
<polygon fill="white" stroke="transparent" points="-4,4 -4,-207 500,-207 500,4 -4,4"/>
<text text-anchor="start" x="227.01" y="-42.4" font-family="sans-serif" font-weight="bold" font-size="14.00">Legend</text>
<polygon fill="#ffffb3" stroke="transparent" points="14,-10 14,-30 34,-30 34,-10 14,-10"/>
<text text-anchor="start" x="37.63" y="-15.4" font-family="sans-serif" font-size="14.00"> &#160;Declarations</text>
<polygon fill="#8dd3c7" stroke="transparent" points="127,-10 127,-30 147,-30 147,-10 127,-10"/>
<text text-anchor="start" x="150.73" y="-15.4" font-family="sans-serif" font-size="14.00"> &#160;Module</text>
<polygon fill="#80b1d3" stroke="transparent" points="213,-10 213,-30 233,-30 233,-10 213,-10"/>
<text text-anchor="start" x="236.78" y="-15.4" font-family="sans-serif" font-size="14.00"> &#160;Bootstrap</text>
<polygon fill="#fdb462" stroke="transparent" points="310,-10 310,-30 330,-30 330,-10 310,-10"/>
<text text-anchor="start" x="333.67" y="-15.4" font-family="sans-serif" font-size="14.00"> &#160;Providers</text>
<polygon fill="#fb8072" stroke="transparent" points="406,-10 406,-30 426,-30 426,-10 406,-10"/>
<text text-anchor="start" x="429.73" y="-15.4" font-family="sans-serif" font-size="14.00"> &#160;Exports</text>
<g id="clust1" class="cluster">
<title>cluster_CommonModule</title>
<polygon fill="none" stroke="black" stroke-dasharray="1,5" points="26.5,-70 26.5,-195 469.5,-195 469.5,-70 26.5,-70"/>
</g>
<g id="clust6" class="cluster">
<title>cluster_CommonModule_providers</title>
<polygon fill="none" stroke="black" points="34.5,-78 34.5,-130 461.5,-130 461.5,-78 34.5,-78"/>
</g>
<!-- ColorConversionService -->
<g id="node1" class="node">
<title>ColorConversionService</title>
<ellipse fill="#fdb462" stroke="black" cx="346.5" cy="-104" rx="106.52" ry="18"/>
<text text-anchor="middle" x="346.5" y="-99.8" font-family="Times,serif" font-size="14.00">ColorConversionService</text>
</g>
<!-- CommonModule -->
<g id="node3" class="node">
<title>CommonModule</title>
<polygon fill="#8dd3c7" stroke="black" points="295.17,-187 292.17,-191 271.17,-191 268.17,-187 183.83,-187 183.83,-151 295.17,-151 295.17,-187"/>
<text text-anchor="middle" x="239.5" y="-164.8" font-family="Times,serif" font-size="14.00">CommonModule</text>
</g>
<!-- ColorConversionService&#45;&gt;CommonModule -->
<g id="edge1" class="edge">
<title>ColorConversionService&#45;&gt;CommonModule</title>
<path fill="none" stroke="black" d="M267.66,-116.23C267.66,-116.23 267.66,-140.68 267.66,-140.68"/>
<polygon fill="black" stroke="black" points="264.16,-140.68 267.66,-150.68 271.16,-140.68 264.16,-140.68"/>
</g>
<!-- ContactTuyaService -->
<g id="node2" class="node">
<title>ContactTuyaService</title>
<ellipse fill="#fdb462" stroke="black" cx="132.5" cy="-104" rx="89.75" ry="18"/>
<text text-anchor="middle" x="132.5" y="-99.8" font-family="Times,serif" font-size="14.00">ContactTuyaService</text>
</g>
<!-- ContactTuyaService&#45;&gt;CommonModule -->
<g id="edge2" class="edge">
<title>ContactTuyaService&#45;&gt;CommonModule</title>
<path fill="none" stroke="black" d="M203.02,-115.32C203.02,-115.32 203.02,-140.94 203.02,-140.94"/>
<polygon fill="black" stroke="black" points="199.52,-140.94 203.02,-150.94 206.52,-140.94 199.52,-140.94"/>
</g>
</g>
</svg>
