<?xml version="1.0" encoding="UTF-8" standalone="no"?>
<!DOCTYPE svg PUBLIC "-//W3C//DTD SVG 1.1//EN"
 "http://www.w3.org/Graphics/SVG/1.1/DTD/svg11.dtd">
<!-- Generated by graphviz version 2.44.1 (20200629.0846)
 -->
<!-- Title: dependencies Pages: 1 -->
<svg width="504pt" height="211pt"
 viewBox="0.00 0.00 504.00 211.00" xmlns="http://www.w3.org/2000/svg" xmlns:xlink="http://www.w3.org/1999/xlink">
<g id="graph0" class="graph" transform="scale(1 1) rotate(0) translate(4 207)">
<title>dependencies</title>
<polygon fill="white" stroke="transparent" points="-4,4 -4,-207 500,-207 500,4 -4,4"/>
<text text-anchor="start" x="227.01" y="-42.4" font-family="sans-serif" font-weight="bold" font-size="14.00">Legend</text>
<polygon fill="#ffffb3" stroke="transparent" points="14,-10 14,-30 34,-30 34,-10 14,-10"/>
<text text-anchor="start" x="37.63" y="-15.4" font-family="sans-serif" font-size="14.00"> &#160;Declarations</text>
<polygon fill="#8dd3c7" stroke="transparent" points="127,-10 127,-30 147,-30 147,-10 127,-10"/>
<text text-anchor="start" x="150.73" y="-15.4" font-family="sans-serif" font-size="14.00"> &#160;Module</text>
<polygon fill="#80b1d3" stroke="transparent" points="213,-10 213,-30 233,-30 233,-10 213,-10"/>
<text text-anchor="start" x="236.78" y="-15.4" font-family="sans-serif" font-size="14.00"> &#160;Bootstrap</text>
<polygon fill="#fdb462" stroke="transparent" points="310,-10 310,-30 330,-30 330,-10 310,-10"/>
<text text-anchor="start" x="333.67" y="-15.4" font-family="sans-serif" font-size="14.00"> &#160;Providers</text>
<polygon fill="#fb8072" stroke="transparent" points="406,-10 406,-30 426,-30 426,-10 406,-10"/>
<text text-anchor="start" x="429.73" y="-15.4" font-family="sans-serif" font-size="14.00"> &#160;Exports</text>
<g id="clust1" class="cluster">
<title>cluster_TuyaModule</title>
<polygon fill="none" stroke="black" stroke-dasharray="1,5" points="73,-70 73,-195 423,-195 423,-70 73,-70"/>
</g>
<g id="clust6" class="cluster">
<title>cluster_TuyaModule_providers</title>
<polygon fill="none" stroke="black" points="81,-78 81,-130 415,-130 415,-78 81,-78"/>
</g>
<!-- ContactTuyaService -->
<g id="node1" class="node">
<title>ContactTuyaService</title>
<ellipse fill="#fdb462" stroke="black" cx="317" cy="-104" rx="89.75" ry="18"/>
<text text-anchor="middle" x="317" y="-99.8" font-family="Times,serif" font-size="14.00">ContactTuyaService</text>
</g>
<!-- TuyaModule -->
<g id="node3" class="node">
<title>TuyaModule</title>
<polygon fill="#8dd3c7" stroke="black" points="277.32,-187 274.32,-191 253.32,-191 250.32,-187 188.68,-187 188.68,-151 277.32,-151 277.32,-187"/>
<text text-anchor="middle" x="233" y="-164.8" font-family="Times,serif" font-size="14.00">TuyaModule</text>
</g>
<!-- ContactTuyaService&#45;&gt;TuyaModule -->
<g id="edge1" class="edge">
<title>ContactTuyaService&#45;&gt;TuyaModule</title>
<path fill="none" stroke="black" d="M252.14,-116.53C252.14,-116.53 252.14,-140.85 252.14,-140.85"/>
<polygon fill="black" stroke="black" points="248.64,-140.85 252.14,-150.85 255.64,-140.85 248.64,-140.85"/>
</g>
<!-- TuyaService -->
<g id="node2" class="node">
<title>TuyaService</title>
<ellipse fill="#fdb462" stroke="black" cx="149" cy="-104" rx="59.67" ry="18"/>
<text text-anchor="middle" x="149" y="-99.8" font-family="Times,serif" font-size="14.00">TuyaService</text>
</g>
<!-- TuyaService&#45;&gt;TuyaModule -->
<g id="edge2" class="edge">
<title>TuyaService&#45;&gt;TuyaModule</title>
<path fill="none" stroke="black" d="M198.84,-114.16C198.84,-114.16 198.84,-140.81 198.84,-140.81"/>
<polygon fill="black" stroke="black" points="195.34,-140.81 198.84,-150.81 202.34,-140.81 195.34,-140.81"/>
</g>
</g>
</svg>
