<?xml version="1.0" encoding="UTF-8" standalone="no"?>
<!DOCTYPE svg PUBLIC "-//W3C//DTD SVG 1.1//EN"
 "http://www.w3.org/Graphics/SVG/1.1/DTD/svg11.dtd">
<!-- Generated by graphviz version 2.44.1 (20200629.0846)
 -->
<!-- Title: dependencies Pages: 1 -->
<svg width="612pt" height="211pt"
 viewBox="0.00 0.00 612.00 211.00" xmlns="http://www.w3.org/2000/svg" xmlns:xlink="http://www.w3.org/1999/xlink">
<g id="graph0" class="graph" transform="scale(1 1) rotate(0) translate(4 207)">
<title>dependencies</title>
<polygon fill="white" stroke="transparent" points="-4,4 -4,-207 608,-207 608,4 -4,4"/>
<text text-anchor="start" x="281.01" y="-42.4" font-family="sans-serif" font-weight="bold" font-size="14.00">Legend</text>
<polygon fill="#ffffb3" stroke="transparent" points="68,-10 68,-30 88,-30 88,-10 68,-10"/>
<text text-anchor="start" x="91.63" y="-15.4" font-family="sans-serif" font-size="14.00"> &#160;Declarations</text>
<polygon fill="#8dd3c7" stroke="transparent" points="181,-10 181,-30 201,-30 201,-10 181,-10"/>
<text text-anchor="start" x="204.73" y="-15.4" font-family="sans-serif" font-size="14.00"> &#160;Module</text>
<polygon fill="#80b1d3" stroke="transparent" points="267,-10 267,-30 287,-30 287,-10 267,-10"/>
<text text-anchor="start" x="290.78" y="-15.4" font-family="sans-serif" font-size="14.00"> &#160;Bootstrap</text>
<polygon fill="#fdb462" stroke="transparent" points="364,-10 364,-30 384,-30 384,-10 364,-10"/>
<text text-anchor="start" x="387.67" y="-15.4" font-family="sans-serif" font-size="14.00"> &#160;Providers</text>
<polygon fill="#fb8072" stroke="transparent" points="460,-10 460,-30 480,-30 480,-10 460,-10"/>
<text text-anchor="start" x="483.73" y="-15.4" font-family="sans-serif" font-size="14.00"> &#160;Exports</text>
<g id="clust1" class="cluster">
<title>cluster_NooieModule</title>
<polygon fill="none" stroke="black" stroke-dasharray="1,5" points="8,-70 8,-195 596,-195 596,-70 8,-70"/>
</g>
<g id="clust6" class="cluster">
<title>cluster_NooieModule_providers</title>
<polygon fill="none" stroke="black" points="16,-78 16,-130 588,-130 588,-78 16,-78"/>
</g>
<!-- ColorConversionService -->
<g id="node1" class="node">
<title>ColorConversionService</title>
<ellipse fill="#fdb462" stroke="black" cx="473" cy="-104" rx="106.52" ry="18"/>
<text text-anchor="middle" x="473" y="-99.8" font-family="Times,serif" font-size="14.00">ColorConversionService</text>
</g>
<!-- NooieModule -->
<g id="node4" class="node">
<title>NooieModule</title>
<polygon fill="#8dd3c7" stroke="black" points="305.76,-187 302.76,-191 281.76,-191 278.76,-187 212.24,-187 212.24,-151 305.76,-151 305.76,-187"/>
<text text-anchor="middle" x="259" y="-164.8" font-family="Times,serif" font-size="14.00">NooieModule</text>
</g>
<!-- ColorConversionService&#45;&gt;NooieModule -->
<g id="edge1" class="edge">
<title>ColorConversionService&#45;&gt;NooieModule</title>
<path fill="none" stroke="black" d="M473,-122.11C473,-141.34 473,-169 473,-169 473,-169 315.96,-169 315.96,-169"/>
<polygon fill="black" stroke="black" points="315.96,-165.5 305.96,-169 315.96,-172.5 315.96,-165.5"/>
</g>
<!-- ContactTuyaService -->
<g id="node2" class="node">
<title>ContactTuyaService</title>
<ellipse fill="#fdb462" stroke="black" cx="259" cy="-104" rx="89.75" ry="18"/>
<text text-anchor="middle" x="259" y="-99.8" font-family="Times,serif" font-size="14.00">ContactTuyaService</text>
</g>
<!-- ContactTuyaService&#45;&gt;NooieModule -->
<g id="edge2" class="edge">
<title>ContactTuyaService&#45;&gt;NooieModule</title>
<path fill="none" stroke="black" d="M259,-122.11C259,-122.11 259,-140.99 259,-140.99"/>
<polygon fill="black" stroke="black" points="255.5,-140.99 259,-150.99 262.5,-140.99 255.5,-140.99"/>
</g>
<!-- NooieService -->
<g id="node3" class="node">
<title>NooieService</title>
<ellipse fill="#fdb462" stroke="black" cx="88" cy="-104" rx="63.68" ry="18"/>
<text text-anchor="middle" x="88" y="-99.8" font-family="Times,serif" font-size="14.00">NooieService</text>
</g>
<!-- NooieService&#45;&gt;NooieModule -->
<g id="edge3" class="edge">
<title>NooieService&#45;&gt;NooieModule</title>
<path fill="none" stroke="black" d="M88,-122.11C88,-141.34 88,-169 88,-169 88,-169 201.82,-169 201.82,-169"/>
<polygon fill="black" stroke="black" points="201.82,-172.5 211.82,-169 201.82,-165.5 201.82,-172.5"/>
</g>
</g>
</svg>
