<?xml version="1.0" encoding="UTF-8" standalone="no"?>
<!DOCTYPE svg PUBLIC "-//W3C//DTD SVG 1.1//EN"
 "http://www.w3.org/Graphics/SVG/1.1/DTD/svg11.dtd">
<!-- Generated by graphviz version 2.44.1 (20200629.0846)
 -->
<!-- Title: dependencies Pages: 1 -->
<svg width="1307pt" height="287pt"
 viewBox="0.00 0.00 1307.00 287.00" xmlns="http://www.w3.org/2000/svg" xmlns:xlink="http://www.w3.org/1999/xlink">
<g id="graph0" class="graph" transform="scale(1 1) rotate(0) translate(4 283)">
<title>dependencies</title>
<polygon fill="white" stroke="transparent" points="-4,4 -4,-283 1303,-283 1303,4 -4,4"/>
<text text-anchor="start" x="628.51" y="-42.4" font-family="sans-serif" font-weight="bold" font-size="14.00">Legend</text>
<polygon fill="#ffffb3" stroke="transparent" points="415.5,-10 415.5,-30 435.5,-30 435.5,-10 415.5,-10"/>
<text text-anchor="start" x="439.13" y="-15.4" font-family="sans-serif" font-size="14.00"> &#160;Declarations</text>
<polygon fill="#8dd3c7" stroke="transparent" points="528.5,-10 528.5,-30 548.5,-30 548.5,-10 528.5,-10"/>
<text text-anchor="start" x="552.23" y="-15.4" font-family="sans-serif" font-size="14.00"> &#160;Module</text>
<polygon fill="#80b1d3" stroke="transparent" points="614.5,-10 614.5,-30 634.5,-30 634.5,-10 614.5,-10"/>
<text text-anchor="start" x="638.28" y="-15.4" font-family="sans-serif" font-size="14.00"> &#160;Bootstrap</text>
<polygon fill="#fdb462" stroke="transparent" points="711.5,-10 711.5,-30 731.5,-30 731.5,-10 711.5,-10"/>
<text text-anchor="start" x="735.17" y="-15.4" font-family="sans-serif" font-size="14.00"> &#160;Providers</text>
<polygon fill="#fb8072" stroke="transparent" points="807.5,-10 807.5,-30 827.5,-30 827.5,-10 807.5,-10"/>
<text text-anchor="start" x="831.23" y="-15.4" font-family="sans-serif" font-size="14.00"> &#160;Exports</text>
<g id="clust1" class="cluster">
<title>cluster_AppModule</title>
<polygon fill="none" stroke="black" stroke-dasharray="1,5" points="329,-146 329,-271 927,-271 927,-146 329,-146"/>
</g>
<g id="clust3" class="cluster">
<title>cluster_AppModule_imports</title>
<polygon fill="none" stroke="black" points="337,-154 337,-206 919,-206 919,-154 337,-154"/>
</g>
<g id="clust7" class="cluster">
<title>cluster_BroadlinkModule</title>
<polygon fill="none" stroke="black" stroke-dasharray="1,5" points="8,-70 8,-138 358,-138 358,-70 8,-70"/>
</g>
<g id="clust12" class="cluster">
<title>cluster_BroadlinkModule_providers</title>
<polygon fill="none" stroke="black" points="16,-78 16,-130 350,-130 350,-78 16,-78"/>
</g>
<g id="clust13" class="cluster">
<title>cluster_CommonModule</title>
<polygon fill="none" stroke="black" stroke-dasharray="1,5" points="366,-70 366,-138 809,-138 809,-70 366,-70"/>
</g>
<g id="clust18" class="cluster">
<title>cluster_CommonModule_providers</title>
<polygon fill="none" stroke="black" points="374,-78 374,-130 801,-130 801,-78 374,-78"/>
</g>
<g id="clust19" class="cluster">
<title>cluster_LifxModule</title>
<polygon fill="none" stroke="black" stroke-dasharray="1,5" points="817,-70 817,-138 963,-138 963,-70 817,-70"/>
</g>
<g id="clust24" class="cluster">
<title>cluster_LifxModule_providers</title>
<polygon fill="none" stroke="black" points="825,-78 825,-130 955,-130 955,-78 825,-78"/>
</g>
<g id="clust25" class="cluster">
<title>cluster_NooieModule</title>
<polygon fill="none" stroke="black" stroke-dasharray="1,5" points="971,-70 971,-138 1131,-138 1131,-70 971,-70"/>
</g>
<g id="clust30" class="cluster">
<title>cluster_NooieModule_providers</title>
<polygon fill="none" stroke="black" points="979,-78 979,-130 1123,-130 1123,-78 979,-78"/>
</g>
<g id="clust31" class="cluster">
<title>cluster_TuyaModule</title>
<polygon fill="none" stroke="black" stroke-dasharray="1,5" points="1139,-70 1139,-138 1291,-138 1291,-70 1139,-70"/>
</g>
<g id="clust36" class="cluster">
<title>cluster_TuyaModule_providers</title>
<polygon fill="none" stroke="black" points="1147,-78 1147,-130 1283,-130 1283,-78 1147,-78"/>
</g>
<!-- BroadlinkModule -->
<g id="node1" class="node">
<title>BroadlinkModule</title>
<polygon fill="#8dd3c7" stroke="black" points="460.54,-198 457.54,-202 436.54,-202 433.54,-198 345.46,-198 345.46,-162 460.54,-162 460.54,-198"/>
<text text-anchor="middle" x="403" y="-175.8" font-family="Times,serif" font-size="14.00">BroadlinkModule</text>
</g>
<!-- AppModule -->
<g id="node6" class="node">
<title>AppModule</title>
<polygon fill="#8dd3c7" stroke="black" points="697.66,-263 694.66,-267 673.66,-267 670.66,-263 614.34,-263 614.34,-227 697.66,-227 697.66,-263"/>
<text text-anchor="middle" x="656" y="-240.8" font-family="Times,serif" font-size="14.00">AppModule</text>
</g>
<!-- BroadlinkModule&#45;&gt;AppModule -->
<g id="edge1" class="edge">
<title>BroadlinkModule&#45;&gt;AppModule</title>
<path fill="none" stroke="black" d="M403,-198.28C403,-219.32 403,-251 403,-251 403,-251 604.22,-251 604.22,-251"/>
<polygon fill="black" stroke="black" points="604.22,-254.5 614.22,-251 604.22,-247.5 604.22,-254.5"/>
</g>
<!-- CommonModule -->
<g id="node2" class="node">
<title>CommonModule</title>
<polygon fill="#8dd3c7" stroke="black" points="590.67,-198 587.67,-202 566.67,-202 563.67,-198 479.33,-198 479.33,-162 590.67,-162 590.67,-198"/>
<text text-anchor="middle" x="535" y="-175.8" font-family="Times,serif" font-size="14.00">CommonModule</text>
</g>
<!-- CommonModule&#45;&gt;AppModule -->
<g id="edge2" class="edge">
<title>CommonModule&#45;&gt;AppModule</title>
<path fill="none" stroke="black" d="M535,-198.02C535,-215.37 535,-239 535,-239 535,-239 604.02,-239 604.02,-239"/>
<polygon fill="black" stroke="black" points="604.02,-242.5 614.02,-239 604.02,-235.5 604.02,-242.5"/>
</g>
<!-- LifxModule -->
<g id="node3" class="node">
<title>LifxModule</title>
<polygon fill="#8dd3c7" stroke="black" points="804.65,-198 801.65,-202 780.65,-202 777.65,-198 721.35,-198 721.35,-162 804.65,-162 804.65,-198"/>
<text text-anchor="middle" x="763" y="-175.8" font-family="Times,serif" font-size="14.00">LifxModule</text>
</g>
<!-- LifxModule&#45;&gt;AppModule -->
<g id="edge3" class="edge">
<title>LifxModule&#45;&gt;AppModule</title>
<path fill="none" stroke="black" d="M763,-198.02C763,-215.37 763,-239 763,-239 763,-239 707.68,-239 707.68,-239"/>
<polygon fill="black" stroke="black" points="707.68,-235.5 697.68,-239 707.68,-242.5 707.68,-235.5"/>
</g>
<!-- NooieModule -->
<g id="node4" class="node">
<title>NooieModule</title>
<polygon fill="#8dd3c7" stroke="black" points="702.76,-198 699.76,-202 678.76,-202 675.76,-198 609.24,-198 609.24,-162 702.76,-162 702.76,-198"/>
<text text-anchor="middle" x="656" y="-175.8" font-family="Times,serif" font-size="14.00">NooieModule</text>
</g>
<!-- NooieModule&#45;&gt;AppModule -->
<g id="edge4" class="edge">
<title>NooieModule&#45;&gt;AppModule</title>
<path fill="none" stroke="black" d="M656,-198.11C656,-198.11 656,-216.99 656,-216.99"/>
<polygon fill="black" stroke="black" points="652.5,-216.99 656,-226.99 659.5,-216.99 652.5,-216.99"/>
</g>
<!-- TuyaModule -->
<g id="node5" class="node">
<title>TuyaModule</title>
<polygon fill="#8dd3c7" stroke="black" points="911.32,-198 908.32,-202 887.32,-202 884.32,-198 822.68,-198 822.68,-162 911.32,-162 911.32,-198"/>
<text text-anchor="middle" x="867" y="-175.8" font-family="Times,serif" font-size="14.00">TuyaModule</text>
</g>
<!-- TuyaModule&#45;&gt;AppModule -->
<g id="edge5" class="edge">
<title>TuyaModule&#45;&gt;AppModule</title>
<path fill="none" stroke="black" d="M867,-198.28C867,-219.32 867,-251 867,-251 867,-251 707.69,-251 707.69,-251"/>
<polygon fill="black" stroke="black" points="707.69,-247.5 697.69,-251 707.69,-254.5 707.69,-247.5"/>
</g>
<!-- BroadlinkService -->
<g id="node7" class="node">
<title>BroadlinkService</title>
<ellipse fill="#fdb462" stroke="black" cx="263" cy="-104" rx="78.73" ry="18"/>
<text text-anchor="middle" x="263" y="-99.8" font-family="Times,serif" font-size="14.00">BroadlinkService</text>
</g>
<!-- BroadlinkService&#45;&gt;BroadlinkModule -->
<g id="edge6" class="edge">
<title>BroadlinkService&#45;&gt;BroadlinkModule</title>
<path fill="none" stroke="black" d="M341.97,-104C354.73,-104 363.86,-104 363.86,-104 363.86,-104 363.86,-151.99 363.86,-151.99"/>
<polygon fill="black" stroke="black" points="360.36,-151.99 363.86,-161.99 367.36,-151.99 360.36,-151.99"/>
</g>
<!-- ExecuteService -->
<g id="node8" class="node">
<title>ExecuteService</title>
<ellipse fill="#fdb462" stroke="black" cx="95" cy="-104" rx="71.18" ry="18"/>
<text text-anchor="middle" x="95" y="-99.8" font-family="Times,serif" font-size="14.00">ExecuteService</text>
</g>
<!-- ExecuteService&#45;&gt;BroadlinkModule -->
<g id="edge7" class="edge">
<title>ExecuteService&#45;&gt;BroadlinkModule</title>
<path fill="none" stroke="black" d="M95,-122.01C95,-144.49 95,-180 95,-180 95,-180 335.43,-180 335.43,-180"/>
<polygon fill="black" stroke="black" points="335.43,-183.5 345.43,-180 335.43,-176.5 335.43,-183.5"/>
</g>
<!-- ColorConversionService -->
<g id="node9" class="node">
<title>ColorConversionService</title>
<ellipse fill="#fdb462" stroke="black" cx="489" cy="-104" rx="106.52" ry="18"/>
<text text-anchor="middle" x="489" y="-99.8" font-family="Times,serif" font-size="14.00">ColorConversionService</text>
</g>
<!-- ColorConversionService&#45;&gt;CommonModule -->
<g id="edge8" class="edge">
<title>ColorConversionService&#45;&gt;CommonModule</title>
<path fill="none" stroke="black" d="M535,-120.49C535,-120.49 535,-151.95 535,-151.95"/>
<polygon fill="black" stroke="black" points="531.5,-151.95 535,-161.95 538.5,-151.95 531.5,-151.95"/>
</g>
<!-- ColorConversionService&#45;&gt;NooieModule -->
<g id="edge11" class="edge">
<title>ColorConversionService&#45;&gt;NooieModule</title>
<path fill="none" stroke="black" d="M589.47,-98C598.65,-98 604.58,-98 604.58,-98 604.58,-98 604.58,-186 604.58,-186 604.58,-186 605.02,-186 605.02,-186"/>
<polygon fill="black" stroke="black" points="598.97,-189.5 608.97,-186 598.97,-182.5 598.97,-189.5"/>
</g>
<!-- ContactTuyaService -->
<g id="node10" class="node">
<title>ContactTuyaService</title>
<ellipse fill="#fdb462" stroke="black" cx="703" cy="-104" rx="89.75" ry="18"/>
<text text-anchor="middle" x="703" y="-99.8" font-family="Times,serif" font-size="14.00">ContactTuyaService</text>
</g>
<!-- ContactTuyaService&#45;&gt;CommonModule -->
<g id="edge9" class="edge">
<title>ContactTuyaService&#45;&gt;CommonModule</title>
<path fill="none" stroke="black" d="M617.98,-110C607.31,-110 600.05,-110 600.05,-110 600.05,-110 600.05,-174 600.05,-174 600.05,-174 599.12,-174 599.12,-174"/>
<polygon fill="black" stroke="black" points="600.73,-170.5 590.73,-174 600.73,-177.5 600.73,-170.5"/>
</g>
<!-- ContactTuyaService&#45;&gt;NooieModule -->
<g id="edge12" class="edge">
<title>ContactTuyaService&#45;&gt;NooieModule</title>
<path fill="none" stroke="black" d="M643.04,-117.59C643.04,-117.59 643.04,-151.96 643.04,-151.96"/>
<polygon fill="black" stroke="black" points="639.55,-151.96 643.04,-161.96 646.55,-151.96 639.55,-151.96"/>
</g>
<!-- ContactTuyaService&#45;&gt;TuyaModule -->
<g id="edge14" class="edge">
<title>ContactTuyaService&#45;&gt;TuyaModule</title>
<path fill="none" stroke="black" d="M787.84,-98C810.15,-98 828.11,-98 828.11,-98 828.11,-98 828.11,-151.8 828.11,-151.8"/>
<polygon fill="black" stroke="black" points="824.61,-151.8 828.11,-161.8 831.61,-151.8 824.61,-151.8"/>
</g>
<!-- LifxService -->
<g id="node11" class="node">
<title>LifxService</title>
<ellipse fill="#fdb462" stroke="black" cx="890" cy="-104" rx="56.74" ry="18"/>
<text text-anchor="middle" x="890" y="-99.8" font-family="Times,serif" font-size="14.00">LifxService</text>
</g>
<!-- LifxService&#45;&gt;LifxModule -->
<g id="edge10" class="edge">
<title>LifxService&#45;&gt;LifxModule</title>
<path fill="none" stroke="black" d="M836.45,-110C816.61,-110 798.85,-110 798.85,-110 798.85,-110 798.85,-151.97 798.85,-151.97"/>
<polygon fill="black" stroke="black" points="795.35,-151.97 798.85,-161.97 802.35,-151.97 795.35,-151.97"/>
</g>
<!-- NooieService -->
<g id="node12" class="node">
<title>NooieService</title>
<ellipse fill="#fdb462" stroke="black" cx="1051" cy="-104" rx="63.68" ry="18"/>
<text text-anchor="middle" x="1051" y="-99.8" font-family="Times,serif" font-size="14.00">NooieService</text>
</g>
<!-- NooieService&#45;&gt;NooieModule -->
<g id="edge13" class="edge">
<title>NooieService&#45;&gt;NooieModule</title>
<path fill="none" stroke="black" d="M1051,-122.11C1051,-131.9 1051,-142 1051,-142 1051,-142 672.96,-142 672.96,-142 672.96,-142 672.96,-151.89 672.96,-151.89"/>
<polygon fill="black" stroke="black" points="669.46,-151.89 672.96,-161.89 676.46,-151.89 669.46,-151.89"/>
</g>
<!-- TuyaService -->
<g id="node13" class="node">
<title>TuyaService</title>
<ellipse fill="#fdb462" stroke="black" cx="1215" cy="-104" rx="59.67" ry="18"/>
<text text-anchor="middle" x="1215" y="-99.8" font-family="Times,serif" font-size="14.00">TuyaService</text>
</g>
<!-- TuyaService&#45;&gt;TuyaModule -->
<g id="edge15" class="edge">
<title>TuyaService&#45;&gt;TuyaModule</title>
<path fill="none" stroke="black" d="M1215,-122.01C1215,-144.49 1215,-180 1215,-180 1215,-180 921.43,-180 921.43,-180"/>
<polygon fill="black" stroke="black" points="921.43,-176.5 911.43,-180 921.43,-183.5 921.43,-176.5"/>
</g>
</g>
</svg>
