<?xml version="1.0" encoding="UTF-8" standalone="no"?>
<!DOCTYPE svg PUBLIC "-//W3C//DTD SVG 1.1//EN"
 "http://www.w3.org/Graphics/SVG/1.1/DTD/svg11.dtd">
<!-- Generated by graphviz version 2.44.1 (20200629.0846)
 -->
<!-- Title: dependencies Pages: 1 -->
<svg width="504pt" height="211pt"
 viewBox="0.00 0.00 504.00 211.00" xmlns="http://www.w3.org/2000/svg" xmlns:xlink="http://www.w3.org/1999/xlink">
<g id="graph0" class="graph" transform="scale(1 1) rotate(0) translate(4 207)">
<title>dependencies</title>
<polygon fill="white" stroke="transparent" points="-4,4 -4,-207 500,-207 500,4 -4,4"/>
<text text-anchor="start" x="227.01" y="-42.4" font-family="sans-serif" font-weight="bold" font-size="14.00">Legend</text>
<polygon fill="#ffffb3" stroke="transparent" points="14,-10 14,-30 34,-30 34,-10 14,-10"/>
<text text-anchor="start" x="37.63" y="-15.4" font-family="sans-serif" font-size="14.00"> &#160;Declarations</text>
<polygon fill="#8dd3c7" stroke="transparent" points="127,-10 127,-30 147,-30 147,-10 127,-10"/>
<text text-anchor="start" x="150.73" y="-15.4" font-family="sans-serif" font-size="14.00"> &#160;Module</text>
<polygon fill="#80b1d3" stroke="transparent" points="213,-10 213,-30 233,-30 233,-10 213,-10"/>
<text text-anchor="start" x="236.78" y="-15.4" font-family="sans-serif" font-size="14.00"> &#160;Bootstrap</text>
<polygon fill="#fdb462" stroke="transparent" points="310,-10 310,-30 330,-30 330,-10 310,-10"/>
<text text-anchor="start" x="333.67" y="-15.4" font-family="sans-serif" font-size="14.00"> &#160;Providers</text>
<polygon fill="#fb8072" stroke="transparent" points="406,-10 406,-30 426,-30 426,-10 406,-10"/>
<text text-anchor="start" x="429.73" y="-15.4" font-family="sans-serif" font-size="14.00"> &#160;Exports</text>
<g id="clust1" class="cluster">
<title>cluster_AppModule</title>
<polygon fill="none" stroke="black" stroke-dasharray="1,5" points="16,-70 16,-195 480,-195 480,-70 16,-70"/>
</g>
<g id="clust3" class="cluster">
<title>cluster_AppModule_imports</title>
<polygon fill="none" stroke="black" points="24,-78 24,-130 472,-130 472,-78 24,-78"/>
</g>
<!-- CommonModule -->
<g id="node1" class="node">
<title>CommonModule</title>
<polygon fill="#8dd3c7" stroke="black" points="463.67,-122 460.67,-126 439.67,-126 436.67,-122 352.33,-122 352.33,-86 463.67,-86 463.67,-122"/>
<text text-anchor="middle" x="408" y="-99.8" font-family="Times,serif" font-size="14.00">CommonModule</text>
</g>
<!-- AppModule -->
<g id="node5" class="node">
<title>AppModule</title>
<polygon fill="#8dd3c7" stroke="black" points="279.66,-187 276.66,-191 255.66,-191 252.66,-187 196.34,-187 196.34,-151 279.66,-151 279.66,-187"/>
<text text-anchor="middle" x="238" y="-164.8" font-family="Times,serif" font-size="14.00">AppModule</text>
</g>
<!-- CommonModule&#45;&gt;AppModule -->
<g id="edge1" class="edge">
<title>CommonModule&#45;&gt;AppModule</title>
<path fill="none" stroke="black" d="M408,-122.11C408,-141.34 408,-169 408,-169 408,-169 290.02,-169 290.02,-169"/>
<polygon fill="black" stroke="black" points="290.02,-165.5 280.02,-169 290.02,-172.5 290.02,-165.5"/>
</g>
<!-- LifxModule -->
<g id="node2" class="node">
<title>LifxModule</title>
<polygon fill="#8dd3c7" stroke="black" points="333.65,-122 330.65,-126 309.65,-126 306.65,-122 250.35,-122 250.35,-86 333.65,-86 333.65,-122"/>
<text text-anchor="middle" x="292" y="-99.8" font-family="Times,serif" font-size="14.00">LifxModule</text>
</g>
<!-- LifxModule&#45;&gt;AppModule -->
<g id="edge2" class="edge">
<title>LifxModule&#45;&gt;AppModule</title>
<path fill="none" stroke="black" d="M265,-122.11C265,-122.11 265,-140.99 265,-140.99"/>
<polygon fill="black" stroke="black" points="261.5,-140.99 265,-150.99 268.5,-140.99 261.5,-140.99"/>
</g>
<!-- NooieModule -->
<g id="node3" class="node">
<title>NooieModule</title>
<polygon fill="#8dd3c7" stroke="black" points="231.76,-122 228.76,-126 207.76,-126 204.76,-122 138.24,-122 138.24,-86 231.76,-86 231.76,-122"/>
<text text-anchor="middle" x="185" y="-99.8" font-family="Times,serif" font-size="14.00">NooieModule</text>
</g>
<!-- NooieModule&#45;&gt;AppModule -->
<g id="edge3" class="edge">
<title>NooieModule&#45;&gt;AppModule</title>
<path fill="none" stroke="black" d="M214.03,-122.11C214.03,-122.11 214.03,-140.99 214.03,-140.99"/>
<polygon fill="black" stroke="black" points="210.53,-140.99 214.03,-150.99 217.53,-140.99 210.53,-140.99"/>
</g>
<!-- TuyaModule -->
<g id="node4" class="node">
<title>TuyaModule</title>
<polygon fill="#8dd3c7" stroke="black" points="120.32,-122 117.32,-126 96.32,-126 93.32,-122 31.68,-122 31.68,-86 120.32,-86 120.32,-122"/>
<text text-anchor="middle" x="76" y="-99.8" font-family="Times,serif" font-size="14.00">TuyaModule</text>
</g>
<!-- TuyaModule&#45;&gt;AppModule -->
<g id="edge4" class="edge">
<title>TuyaModule&#45;&gt;AppModule</title>
<path fill="none" stroke="black" d="M76,-122.11C76,-141.34 76,-169 76,-169 76,-169 186.28,-169 186.28,-169"/>
<polygon fill="black" stroke="black" points="186.28,-172.5 196.28,-169 186.28,-165.5 186.28,-172.5"/>
</g>
</g>
</svg>
