<?xml version="1.0" encoding="UTF-8" standalone="no"?>
<!DOCTYPE svg PUBLIC "-//W3C//DTD SVG 1.1//EN"
 "http://www.w3.org/Graphics/SVG/1.1/DTD/svg11.dtd">
<!-- Generated by graphviz version 2.44.1 (20200629.0846)
 -->
<!-- Title: dependencies Pages: 1 -->
<svg width="504pt" height="211pt"
 viewBox="0.00 0.00 504.00 211.00" xmlns="http://www.w3.org/2000/svg" xmlns:xlink="http://www.w3.org/1999/xlink">
<g id="graph0" class="graph" transform="scale(1 1) rotate(0) translate(4 207)">
<title>dependencies</title>
<polygon fill="white" stroke="transparent" points="-4,4 -4,-207 500,-207 500,4 -4,4"/>
<text text-anchor="start" x="227.01" y="-42.4" font-family="sans-serif" font-weight="bold" font-size="14.00">Legend</text>
<polygon fill="#ffffb3" stroke="transparent" points="14,-10 14,-30 34,-30 34,-10 14,-10"/>
<text text-anchor="start" x="37.63" y="-15.4" font-family="sans-serif" font-size="14.00"> &#160;Declarations</text>
<polygon fill="#8dd3c7" stroke="transparent" points="127,-10 127,-30 147,-30 147,-10 127,-10"/>
<text text-anchor="start" x="150.73" y="-15.4" font-family="sans-serif" font-size="14.00"> &#160;Module</text>
<polygon fill="#80b1d3" stroke="transparent" points="213,-10 213,-30 233,-30 233,-10 213,-10"/>
<text text-anchor="start" x="236.78" y="-15.4" font-family="sans-serif" font-size="14.00"> &#160;Bootstrap</text>
<polygon fill="#fdb462" stroke="transparent" points="310,-10 310,-30 330,-30 330,-10 310,-10"/>
<text text-anchor="start" x="333.67" y="-15.4" font-family="sans-serif" font-size="14.00"> &#160;Providers</text>
<polygon fill="#fb8072" stroke="transparent" points="406,-10 406,-30 426,-30 426,-10 406,-10"/>
<text text-anchor="start" x="429.73" y="-15.4" font-family="sans-serif" font-size="14.00"> &#160;Exports</text>
<g id="clust1" class="cluster">
<title>cluster_AppModule</title>
<polygon fill="none" stroke="black" stroke-dasharray="1,5" points="67,-70 67,-195 429,-195 429,-70 67,-70"/>
</g>
<g id="clust3" class="cluster">
<title>cluster_AppModule_imports</title>
<polygon fill="none" stroke="black" points="75,-78 75,-130 421,-130 421,-78 75,-78"/>
</g>
<!-- CommonModule -->
<g id="node1" class="node">
<title>CommonModule</title>
<polygon fill="#8dd3c7" stroke="black" points="412.67,-122 409.67,-126 388.67,-126 385.67,-122 301.33,-122 301.33,-86 412.67,-86 412.67,-122"/>
<text text-anchor="middle" x="357" y="-99.8" font-family="Times,serif" font-size="14.00">CommonModule</text>
</g>
<!-- AppModule -->
<g id="node4" class="node">
<title>AppModule</title>
<polygon fill="#8dd3c7" stroke="black" points="277.66,-187 274.66,-191 253.66,-191 250.66,-187 194.34,-187 194.34,-151 277.66,-151 277.66,-187"/>
<text text-anchor="middle" x="236" y="-164.8" font-family="Times,serif" font-size="14.00">AppModule</text>
</g>
<!-- CommonModule&#45;&gt;AppModule -->
<g id="edge1" class="edge">
<title>CommonModule&#45;&gt;AppModule</title>
<path fill="none" stroke="black" d="M357,-122.11C357,-141.34 357,-169 357,-169 357,-169 287.98,-169 287.98,-169"/>
<polygon fill="black" stroke="black" points="287.98,-165.5 277.98,-169 287.98,-172.5 287.98,-165.5"/>
</g>
<!-- NooieModule -->
<g id="node2" class="node">
<title>NooieModule</title>
<polygon fill="#8dd3c7" stroke="black" points="282.76,-122 279.76,-126 258.76,-126 255.76,-122 189.24,-122 189.24,-86 282.76,-86 282.76,-122"/>
<text text-anchor="middle" x="236" y="-99.8" font-family="Times,serif" font-size="14.00">NooieModule</text>
</g>
<!-- NooieModule&#45;&gt;AppModule -->
<g id="edge2" class="edge">
<title>NooieModule&#45;&gt;AppModule</title>
<path fill="none" stroke="black" d="M236,-122.11C236,-122.11 236,-140.99 236,-140.99"/>
<polygon fill="black" stroke="black" points="232.5,-140.99 236,-150.99 239.5,-140.99 232.5,-140.99"/>
</g>
<!-- TuyaModule -->
<g id="node3" class="node">
<title>TuyaModule</title>
<polygon fill="#8dd3c7" stroke="black" points="171.32,-122 168.32,-126 147.32,-126 144.32,-122 82.68,-122 82.68,-86 171.32,-86 171.32,-122"/>
<text text-anchor="middle" x="127" y="-99.8" font-family="Times,serif" font-size="14.00">TuyaModule</text>
</g>
<!-- TuyaModule&#45;&gt;AppModule -->
<g id="edge3" class="edge">
<title>TuyaModule&#45;&gt;AppModule</title>
<path fill="none" stroke="black" d="M127,-122.11C127,-141.34 127,-169 127,-169 127,-169 184.17,-169 184.17,-169"/>
<polygon fill="black" stroke="black" points="184.17,-172.5 194.17,-169 184.17,-165.5 184.17,-172.5"/>
</g>
</g>
</svg>
