<?xml version="1.0" encoding="UTF-8" standalone="no"?>
<!DOCTYPE svg PUBLIC "-//W3C//DTD SVG 1.1//EN"
 "http://www.w3.org/Graphics/SVG/1.1/DTD/svg11.dtd">
<!-- Generated by graphviz version 2.44.1 (20200629.0846)
 -->
<!-- Title: dependencies Pages: 1 -->
<svg width="622pt" height="211pt"
 viewBox="0.00 0.00 622.00 211.00" xmlns="http://www.w3.org/2000/svg" xmlns:xlink="http://www.w3.org/1999/xlink">
<g id="graph0" class="graph" transform="scale(1 1) rotate(0) translate(4 207)">
<title>dependencies</title>
<polygon fill="white" stroke="transparent" points="-4,4 -4,-207 618,-207 618,4 -4,4"/>
<text text-anchor="start" x="286.01" y="-42.4" font-family="sans-serif" font-weight="bold" font-size="14.00">Legend</text>
<polygon fill="#ffffb3" stroke="transparent" points="73,-10 73,-30 93,-30 93,-10 73,-10"/>
<text text-anchor="start" x="96.63" y="-15.4" font-family="sans-serif" font-size="14.00"> &#160;Declarations</text>
<polygon fill="#8dd3c7" stroke="transparent" points="186,-10 186,-30 206,-30 206,-10 186,-10"/>
<text text-anchor="start" x="209.73" y="-15.4" font-family="sans-serif" font-size="14.00"> &#160;Module</text>
<polygon fill="#80b1d3" stroke="transparent" points="272,-10 272,-30 292,-30 292,-10 272,-10"/>
<text text-anchor="start" x="295.78" y="-15.4" font-family="sans-serif" font-size="14.00"> &#160;Bootstrap</text>
<polygon fill="#fdb462" stroke="transparent" points="369,-10 369,-30 389,-30 389,-10 369,-10"/>
<text text-anchor="start" x="392.67" y="-15.4" font-family="sans-serif" font-size="14.00"> &#160;Providers</text>
<polygon fill="#fb8072" stroke="transparent" points="465,-10 465,-30 485,-30 485,-10 465,-10"/>
<text text-anchor="start" x="488.73" y="-15.4" font-family="sans-serif" font-size="14.00"> &#160;Exports</text>
<g id="clust1" class="cluster">
<title>cluster_AppModule</title>
<polygon fill="none" stroke="black" stroke-dasharray="1,5" points="8,-70 8,-195 606,-195 606,-70 8,-70"/>
</g>
<g id="clust3" class="cluster">
<title>cluster_AppModule_imports</title>
<polygon fill="none" stroke="black" points="16,-78 16,-130 598,-130 598,-78 16,-78"/>
</g>
<!-- BroadlinkModule -->
<g id="node1" class="node">
<title>BroadlinkModule</title>
<polygon fill="#8dd3c7" stroke="black" points="589.54,-122 586.54,-126 565.54,-126 562.54,-122 474.46,-122 474.46,-86 589.54,-86 589.54,-122"/>
<text text-anchor="middle" x="532" y="-99.8" font-family="Times,serif" font-size="14.00">BroadlinkModule</text>
</g>
<!-- AppModule -->
<g id="node6" class="node">
<title>AppModule</title>
<polygon fill="#8dd3c7" stroke="black" points="325.66,-187 322.66,-191 301.66,-191 298.66,-187 242.34,-187 242.34,-151 325.66,-151 325.66,-187"/>
<text text-anchor="middle" x="284" y="-164.8" font-family="Times,serif" font-size="14.00">AppModule</text>
</g>
<!-- BroadlinkModule&#45;&gt;AppModule -->
<g id="edge1" class="edge">
<title>BroadlinkModule&#45;&gt;AppModule</title>
<path fill="none" stroke="black" d="M532,-122.28C532,-143.32 532,-175 532,-175 532,-175 335.79,-175 335.79,-175"/>
<polygon fill="black" stroke="black" points="335.79,-171.5 325.79,-175 335.79,-178.5 335.79,-171.5"/>
</g>
<!-- CommonModule -->
<g id="node2" class="node">
<title>CommonModule</title>
<polygon fill="#8dd3c7" stroke="black" points="455.67,-122 452.67,-126 431.67,-126 428.67,-122 344.33,-122 344.33,-86 455.67,-86 455.67,-122"/>
<text text-anchor="middle" x="400" y="-99.8" font-family="Times,serif" font-size="14.00">CommonModule</text>
</g>
<!-- CommonModule&#45;&gt;AppModule -->
<g id="edge2" class="edge">
<title>CommonModule&#45;&gt;AppModule</title>
<path fill="none" stroke="black" d="M400,-122.02C400,-139.37 400,-163 400,-163 400,-163 335.88,-163 335.88,-163"/>
<polygon fill="black" stroke="black" points="335.88,-159.5 325.88,-163 335.88,-166.5 335.88,-159.5"/>
</g>
<!-- LifxModule -->
<g id="node3" class="node">
<title>LifxModule</title>
<polygon fill="#8dd3c7" stroke="black" points="325.65,-122 322.65,-126 301.65,-126 298.65,-122 242.35,-122 242.35,-86 325.65,-86 325.65,-122"/>
<text text-anchor="middle" x="284" y="-99.8" font-family="Times,serif" font-size="14.00">LifxModule</text>
</g>
<!-- LifxModule&#45;&gt;AppModule -->
<g id="edge3" class="edge">
<title>LifxModule&#45;&gt;AppModule</title>
<path fill="none" stroke="black" d="M284,-122.11C284,-122.11 284,-140.99 284,-140.99"/>
<polygon fill="black" stroke="black" points="280.5,-140.99 284,-150.99 287.5,-140.99 280.5,-140.99"/>
</g>
<!-- NooieModule -->
<g id="node4" class="node">
<title>NooieModule</title>
<polygon fill="#8dd3c7" stroke="black" points="223.76,-122 220.76,-126 199.76,-126 196.76,-122 130.24,-122 130.24,-86 223.76,-86 223.76,-122"/>
<text text-anchor="middle" x="177" y="-99.8" font-family="Times,serif" font-size="14.00">NooieModule</text>
</g>
<!-- NooieModule&#45;&gt;AppModule -->
<g id="edge4" class="edge">
<title>NooieModule&#45;&gt;AppModule</title>
<path fill="none" stroke="black" d="M177,-122.02C177,-139.37 177,-163 177,-163 177,-163 232.32,-163 232.32,-163"/>
<polygon fill="black" stroke="black" points="232.32,-166.5 242.32,-163 232.32,-159.5 232.32,-166.5"/>
</g>
<!-- TuyaModule -->
<g id="node5" class="node">
<title>TuyaModule</title>
<polygon fill="#8dd3c7" stroke="black" points="112.32,-122 109.32,-126 88.32,-126 85.32,-122 23.68,-122 23.68,-86 112.32,-86 112.32,-122"/>
<text text-anchor="middle" x="68" y="-99.8" font-family="Times,serif" font-size="14.00">TuyaModule</text>
</g>
<!-- TuyaModule&#45;&gt;AppModule -->
<g id="edge5" class="edge">
<title>TuyaModule&#45;&gt;AppModule</title>
<path fill="none" stroke="black" d="M68,-122.28C68,-143.32 68,-175 68,-175 68,-175 232.1,-175 232.1,-175"/>
<polygon fill="black" stroke="black" points="232.1,-178.5 242.1,-175 232.1,-171.5 232.1,-178.5"/>
</g>
</g>
</svg>
