<?xml version="1.0" encoding="UTF-8" standalone="no"?>
<!DOCTYPE svg PUBLIC "-//W3C//DTD SVG 1.1//EN"
 "http://www.w3.org/Graphics/SVG/1.1/DTD/svg11.dtd">
<!-- Generated by graphviz version 2.44.1 (20200629.0846)
 -->
<!-- Title: dependencies Pages: 1 -->
<svg width="504pt" height="211pt"
 viewBox="0.00 0.00 504.00 211.00" xmlns="http://www.w3.org/2000/svg" xmlns:xlink="http://www.w3.org/1999/xlink">
<g id="graph0" class="graph" transform="scale(1 1) rotate(0) translate(4 207)">
<title>dependencies</title>
<polygon fill="white" stroke="transparent" points="-4,4 -4,-207 500,-207 500,4 -4,4"/>
<text text-anchor="start" x="227.01" y="-42.4" font-family="sans-serif" font-weight="bold" font-size="14.00">Legend</text>
<polygon fill="#ffffb3" stroke="transparent" points="14,-10 14,-30 34,-30 34,-10 14,-10"/>
<text text-anchor="start" x="37.63" y="-15.4" font-family="sans-serif" font-size="14.00"> &#160;Declarations</text>
<polygon fill="#8dd3c7" stroke="transparent" points="127,-10 127,-30 147,-30 147,-10 127,-10"/>
<text text-anchor="start" x="150.73" y="-15.4" font-family="sans-serif" font-size="14.00"> &#160;Module</text>
<polygon fill="#80b1d3" stroke="transparent" points="213,-10 213,-30 233,-30 233,-10 213,-10"/>
<text text-anchor="start" x="236.78" y="-15.4" font-family="sans-serif" font-size="14.00"> &#160;Bootstrap</text>
<polygon fill="#fdb462" stroke="transparent" points="310,-10 310,-30 330,-30 330,-10 310,-10"/>
<text text-anchor="start" x="333.67" y="-15.4" font-family="sans-serif" font-size="14.00"> &#160;Providers</text>
<polygon fill="#fb8072" stroke="transparent" points="406,-10 406,-30 426,-30 426,-10 406,-10"/>
<text text-anchor="start" x="429.73" y="-15.4" font-family="sans-serif" font-size="14.00"> &#160;Exports</text>
<g id="clust1" class="cluster">
<title>cluster_BroadlinkModule</title>
<polygon fill="none" stroke="black" stroke-dasharray="1,5" points="73,-70 73,-195 423,-195 423,-70 73,-70"/>
</g>
<g id="clust6" class="cluster">
<title>cluster_BroadlinkModule_providers</title>
<polygon fill="none" stroke="black" points="81,-78 81,-130 415,-130 415,-78 81,-78"/>
</g>
<!-- BroadlinkService -->
<g id="node1" class="node">
<title>BroadlinkService</title>
<ellipse fill="#fdb462" stroke="black" cx="328" cy="-104" rx="78.73" ry="18"/>
<text text-anchor="middle" x="328" y="-99.8" font-family="Times,serif" font-size="14.00">BroadlinkService</text>
</g>
<!-- BroadlinkModule -->
<g id="node3" class="node">
<title>BroadlinkModule</title>
<polygon fill="#8dd3c7" stroke="black" points="301.54,-187 298.54,-191 277.54,-191 274.54,-187 186.46,-187 186.46,-151 301.54,-151 301.54,-187"/>
<text text-anchor="middle" x="244" y="-164.8" font-family="Times,serif" font-size="14.00">BroadlinkModule</text>
</g>
<!-- BroadlinkService&#45;&gt;BroadlinkModule -->
<g id="edge1" class="edge">
<title>BroadlinkService&#45;&gt;BroadlinkModule</title>
<path fill="none" stroke="black" d="M275.58,-117.47C275.58,-117.47 275.58,-140.86 275.58,-140.86"/>
<polygon fill="black" stroke="black" points="272.08,-140.86 275.58,-150.86 279.08,-140.86 272.08,-140.86"/>
</g>
<!-- ExecuteService -->
<g id="node2" class="node">
<title>ExecuteService</title>
<ellipse fill="#fdb462" stroke="black" cx="160" cy="-104" rx="71.18" ry="18"/>
<text text-anchor="middle" x="160" y="-99.8" font-family="Times,serif" font-size="14.00">ExecuteService</text>
</g>
<!-- ExecuteService&#45;&gt;BroadlinkModule -->
<g id="edge2" class="edge">
<title>ExecuteService&#45;&gt;BroadlinkModule</title>
<path fill="none" stroke="black" d="M208.66,-117.15C208.66,-117.15 208.66,-140.69 208.66,-140.69"/>
<polygon fill="black" stroke="black" points="205.16,-140.69 208.66,-150.69 212.16,-140.69 205.16,-140.69"/>
</g>
</g>
</svg>
